<svg width="640" height="465" viewBox="0 0 640 465" fill="none" xmlns="http://www.w3.org/2000/svg">
<path fill-rule="evenodd" clip-rule="evenodd" d="M198.643 1.9676C147.488 7.31463 99.3628 30.5953 63.6436 67.2722C42.5049 88.9766 28.891 109.135 17.5958 135.461C3.76254 167.699 -1.24923 199.313 0.257869 244.811C1.65617 287.013 8.77611 315.039 26.4333 347.838C52.8388 396.892 97.4865 434.893 149.595 452.666C182.298 463.819 177.245 463.49 325.942 464.171L462.161 464.795L458.817 459.628C456.978 456.785 439.021 431.469 418.911 403.37L382.349 352.28L299.413 351.619C221.797 350.999 215.734 350.722 204.872 347.292C157.286 332.259 126.159 298.006 118.267 251.982C108.038 192.339 145.391 134.589 204.878 118.071C217.108 114.675 223.017 114.375 277.529 114.375H336.868V57.1875V0L274.889 0.237691C240.8 0.36815 206.49 1.14732 198.643 1.9676ZM388.589 56.7407V113.481L443.191 112.983C513.891 112.339 520.544 113.876 537.409 134.755C542.372 140.899 542.865 142.676 542.838 154.304C542.813 165.109 542.066 168.244 538.031 174.499C535.406 178.57 530.746 183.692 527.678 185.881C516.224 194.053 509.523 194.795 447.165 194.795H388.591V241.957V289.118L396.228 299.591C400.428 305.351 417.838 330.168 434.915 354.741C451.993 379.314 476.078 413.894 488.44 431.587L510.912 463.755L569.285 464.227L627.657 464.697L621.543 455.291C606.299 431.83 518.79 288.672 518.79 287.192C518.79 286.665 522.709 285.392 527.498 284.363C575.891 273.964 617.76 235.702 633.047 187.907C646.136 146.983 639.883 101.075 616.456 66.1177C605.459 49.7066 582.356 28.7296 565.739 20.0674C533.153 3.08097 513.597 0 438.341 0H388.591L388.589 56.7407ZM242.973 197.381C239.889 198.725 234.148 202.739 230.215 206.298C204.211 229.838 212.92 273.383 245.969 285.065C251.803 287.128 262.836 287.725 295.179 287.725H336.868V241.26V194.795L292.725 194.865C259.424 194.918 247.205 195.535 242.973 197.381Z" fill="white"/>
</svg>
